<svg xmlns="http://www.w3.org/2000/svg" width="1024" height="1024" viewBox="0 0 1024 1024" role="img" aria-labelledby="title desc">
  <title id="title">Clever Paws icon</title>
  <desc id="desc">Project icon for Clever Paws.</desc>
  <defs>
    <linearGradient id="g-clever-paws-candidate" x1="0" y1="0" x2="1" y2="1">
      <stop offset="0" stop-color="#dad7cd"/>
      <stop offset="0.52" stop-color="#588157"/>
      <stop offset="1" stop-color="#101d11"/>
    </linearGradient>
    <radialGradient id="r-clever-paws-candidate" cx="30%" cy="20%" r="75%">
      <stop offset="0" stop-color="#fffdf6" stop-opacity="0.58"/>
      <stop offset="0.48" stop-color="#fffdf6" stop-opacity="0.08"/>
      <stop offset="1" stop-color="#000000" stop-opacity="0.28"/>
    </radialGradient>
    <filter id="shadow-clever-paws-candidate" x="-20%" y="-20%" width="140%" height="140%">
      <feDropShadow dx="0" dy="22" stdDeviation="22" flood-color="#000000" flood-opacity="0.24"/>
    </filter>
  </defs>
  <rect width="1024" height="1024" rx="188" fill="url(#g-clever-paws-candidate)"/>
  <rect width="1024" height="1024" rx="188" fill="url(#r-clever-paws-candidate)"/>
  <g opacity="0.18" stroke="#fffdf6" stroke-width="2">
    <path d="M128 258h768M128 512h768M128 766h768M258 128v768M512 128v768M766 128v768"/>
  </g>
  <g filter="url(#shadow-clever-paws-candidate)"><circle cx="400" cy="464" r="48" fill="#fffdf6" opacity="0.92"/><circle cx="512" cy="418" r="52" fill="#fffdf6" opacity="0.92"/><circle cx="624" cy="464" r="48" fill="#fffdf6" opacity="0.92"/><circle cx="456" cy="570" r="48" fill="#fffdf6" opacity="0.92"/><circle cx="568" cy="570" r="48" fill="#fffdf6" opacity="0.92"/><path stroke="#fffdf6" stroke-width="34" stroke-linecap="round" stroke-linejoin="round" fill="none" d="M358 716c78-78 230-78 308 0"/></g>
  <g>
    <rect x="118" y="786" width="308" height="96" rx="32" fill="#fffdf6" opacity="0.92"/>
    <text x="272" y="850" text-anchor="middle" font-family="Arial, Helvetica, sans-serif" font-size="52" font-weight="800" letter-spacing="3" fill="#101d11">CP</text>
  </g>
</svg>
