<svg xmlns="http://www.w3.org/2000/svg" width="1024" height="1024" viewBox="0 0 1024 1024" role="img" aria-labelledby="title desc">
  <title id="title">Garden League Simulator icon</title>
  <desc id="desc">Project icon for Garden League Simulator.</desc>
  <defs>
    <linearGradient id="g-garden-league-simulator" x1="0" y1="0" x2="1" y2="1">
      <stop offset="0" stop-color="#95d5b2"/>
      <stop offset="0.52" stop-color="#2d6a4f"/>
      <stop offset="1" stop-color="#071b12"/>
    </linearGradient>
    <radialGradient id="r-garden-league-simulator" cx="30%" cy="20%" r="75%">
      <stop offset="0" stop-color="#fffdf6" stop-opacity="0.58"/>
      <stop offset="0.48" stop-color="#fffdf6" stop-opacity="0.08"/>
      <stop offset="1" stop-color="#000000" stop-opacity="0.28"/>
    </radialGradient>
    <filter id="shadow-garden-league-simulator" x="-20%" y="-20%" width="140%" height="140%">
      <feDropShadow dx="0" dy="22" stdDeviation="22" flood-color="#000000" flood-opacity="0.24"/>
    </filter>
  </defs>
  <rect width="1024" height="1024" rx="188" fill="url(#g-garden-league-simulator)"/>
  <rect width="1024" height="1024" rx="188" fill="url(#r-garden-league-simulator)"/>
  <g opacity="0.18" stroke="#fffdf6" stroke-width="2">
    <path d="M128 258h768M128 512h768M128 766h768M258 128v768M512 128v768M766 128v768"/>
  </g>
  <g filter="url(#shadow-garden-league-simulator)"><path stroke="#fffdf6" stroke-width="34" stroke-linecap="round" stroke-linejoin="round" fill="none" d="M512 246v242M380 250h264v94c0 96-58 162-132 162s-132-66-132-162z"/><path stroke="#fffdf6" stroke-width="34" stroke-linecap="round" stroke-linejoin="round" fill="none" d="M380 312h-78c0 108 62 162 146 162M644 312h78c0 108-62 162-146 162"/><path fill="#95d5b2" opacity="0.92" d="M484 610h56v122h-56zM398 728h228v62H398z"/><path fill="#fffdf6" opacity="0.92" d="M322 616c94-20 142-80 146-180-102 20-152 78-146 180z"/></g>
  <g>
    <rect x="118" y="786" width="308" height="96" rx="32" fill="#fffdf6" opacity="0.92"/>
    <text x="272" y="850" text-anchor="middle" font-family="Arial, Helvetica, sans-serif" font-size="52" font-weight="800" letter-spacing="3" fill="#071b12">GL</text>
  </g>
</svg>
