<svg xmlns="http://www.w3.org/2000/svg" width="1024" height="1024" viewBox="0 0 1024 1024" role="img" aria-labelledby="title desc">
  <title id="title">Garden Planner v5 icon</title>
  <desc id="desc">Project icon for Garden Planner v5.</desc>
  <defs>
    <linearGradient id="g-garden-planner-v5" x1="0" y1="0" x2="1" y2="1">
      <stop offset="0" stop-color="#95d5b2"/>
      <stop offset="0.52" stop-color="#2d6a4f"/>
      <stop offset="1" stop-color="#071b12"/>
    </linearGradient>
    <radialGradient id="r-garden-planner-v5" cx="30%" cy="20%" r="75%">
      <stop offset="0" stop-color="#fffdf6" stop-opacity="0.58"/>
      <stop offset="0.48" stop-color="#fffdf6" stop-opacity="0.08"/>
      <stop offset="1" stop-color="#000000" stop-opacity="0.28"/>
    </radialGradient>
    <filter id="shadow-garden-planner-v5" x="-20%" y="-20%" width="140%" height="140%">
      <feDropShadow dx="0" dy="22" stdDeviation="22" flood-color="#000000" flood-opacity="0.24"/>
    </filter>
  </defs>
  <rect width="1024" height="1024" rx="188" fill="url(#g-garden-planner-v5)"/>
  <rect width="1024" height="1024" rx="188" fill="url(#r-garden-planner-v5)"/>
  <g opacity="0.18" stroke="#fffdf6" stroke-width="2">
    <path d="M128 258h768M128 512h768M128 766h768M258 128v768M512 128v768M766 128v768"/>
  </g>
  <g filter="url(#shadow-garden-planner-v5)"><rect x="292" y="270" width="440" height="420" rx="52" stroke="#fffdf6" stroke-width="34" stroke-linecap="round" stroke-linejoin="round" fill="none"/><path stroke="#fffdf6" stroke-width="34" stroke-linecap="round" stroke-linejoin="round" fill="none" d="M292 410h440M292 550h440M438 270v420M586 270v420"/><path fill="#fffdf6" opacity="0.92" d="M384 618c54-74 96-74 150 0-62 34-102 34-150 0z"/><path stroke="#fffdf6" stroke-width="34" stroke-linecap="round" stroke-linejoin="round" fill="none" d="M510 632c12-92 50-152 116-180"/></g>
  <g>
    <rect x="118" y="786" width="308" height="96" rx="32" fill="#fffdf6" opacity="0.92"/>
    <text x="272" y="850" text-anchor="middle" font-family="Arial, Helvetica, sans-serif" font-size="52" font-weight="800" letter-spacing="3" fill="#071b12">GP</text>
  </g>
</svg>
