<svg xmlns="http://www.w3.org/2000/svg" width="1024" height="1024" viewBox="0 0 1024 1024" role="img" aria-labelledby="title desc">
  <title id="title">Home Comic Dashboard icon</title>
  <desc id="desc">Project icon for Home Comic Dashboard.</desc>
  <defs>
    <linearGradient id="g-home-comic-dashboard-candidate" x1="0" y1="0" x2="1" y2="1">
      <stop offset="0" stop-color="#dad7cd"/>
      <stop offset="0.52" stop-color="#588157"/>
      <stop offset="1" stop-color="#101d11"/>
    </linearGradient>
    <radialGradient id="r-home-comic-dashboard-candidate" cx="30%" cy="20%" r="75%">
      <stop offset="0" stop-color="#fffdf6" stop-opacity="0.58"/>
      <stop offset="0.48" stop-color="#fffdf6" stop-opacity="0.08"/>
      <stop offset="1" stop-color="#000000" stop-opacity="0.28"/>
    </radialGradient>
    <filter id="shadow-home-comic-dashboard-candidate" x="-20%" y="-20%" width="140%" height="140%">
      <feDropShadow dx="0" dy="22" stdDeviation="22" flood-color="#000000" flood-opacity="0.24"/>
    </filter>
  </defs>
  <rect width="1024" height="1024" rx="188" fill="url(#g-home-comic-dashboard-candidate)"/>
  <rect width="1024" height="1024" rx="188" fill="url(#r-home-comic-dashboard-candidate)"/>
  <g opacity="0.18" stroke="#fffdf6" stroke-width="2">
    <path d="M128 258h768M128 512h768M128 766h768M258 128v768M512 128v768M766 128v768"/>
  </g>
  <g filter="url(#shadow-home-comic-dashboard-candidate)"><path stroke="#fffdf6" stroke-width="34" stroke-linecap="round" stroke-linejoin="round" fill="none" d="M282 520l230-190 230 190M354 500v210h316V500"/><path fill="#fffdf6" opacity="0.92" d="M338 258h348c54 0 96 40 96 90v106c0 50-42 90-96 90H516l-104 96v-96h-74c-54 0-96-40-96-90V348c0-50 42-90 96-90z"/></g>
  <g>
    <rect x="118" y="786" width="308" height="96" rx="32" fill="#fffdf6" opacity="0.92"/>
    <text x="272" y="850" text-anchor="middle" font-family="Arial, Helvetica, sans-serif" font-size="52" font-weight="800" letter-spacing="3" fill="#101d11">HC</text>
  </g>
</svg>
