<svg xmlns="http://www.w3.org/2000/svg" width="1024" height="1024" viewBox="0 0 1024 1024" role="img" aria-labelledby="title desc">
  <title id="title">PixelForge icon</title>
  <desc id="desc">Project icon for PixelForge.</desc>
  <defs>
    <linearGradient id="g-pixelforge" x1="0" y1="0" x2="1" y2="1">
      <stop offset="0" stop-color="#2a9d8f"/>
      <stop offset="0.52" stop-color="#e76f51"/>
      <stop offset="1" stop-color="#27110c"/>
    </linearGradient>
    <radialGradient id="r-pixelforge" cx="30%" cy="20%" r="75%">
      <stop offset="0" stop-color="#fffdf6" stop-opacity="0.58"/>
      <stop offset="0.48" stop-color="#fffdf6" stop-opacity="0.08"/>
      <stop offset="1" stop-color="#000000" stop-opacity="0.28"/>
    </radialGradient>
    <filter id="shadow-pixelforge" x="-20%" y="-20%" width="140%" height="140%">
      <feDropShadow dx="0" dy="22" stdDeviation="22" flood-color="#000000" flood-opacity="0.24"/>
    </filter>
  </defs>
  <rect width="1024" height="1024" rx="188" fill="url(#g-pixelforge)"/>
  <rect width="1024" height="1024" rx="188" fill="url(#r-pixelforge)"/>
  <g opacity="0.18" stroke="#fffdf6" stroke-width="2">
    <path d="M128 258h768M128 512h768M128 766h768M258 128v768M512 128v768M766 128v768"/>
  </g>
  <g filter="url(#shadow-pixelforge)"><rect x="278" y="278" width="128" height="128" rx="24" fill="#fffdf6" opacity="0.92"/><rect x="448" y="278" width="128" height="128" rx="24" fill="#2a9d8f" opacity="0.92"/><rect x="618" y="278" width="128" height="128" rx="24" fill="#fffdf6" opacity="0.92"/><rect x="278" y="448" width="128" height="128" rx="24" fill="#2a9d8f" opacity="0.92"/><rect x="448" y="448" width="128" height="128" rx="24" fill="#fffdf6" opacity="0.92"/><path stroke="#fffdf6" stroke-width="34" stroke-linecap="round" stroke-linejoin="round" fill="none" d="M642 642l96 96M642 738l96-96"/></g>
  <g>
    <rect x="118" y="786" width="308" height="96" rx="32" fill="#fffdf6" opacity="0.92"/>
    <text x="272" y="850" text-anchor="middle" font-family="Arial, Helvetica, sans-serif" font-size="52" font-weight="800" letter-spacing="3" fill="#27110c">PF</text>
  </g>
</svg>
