<svg xmlns="http://www.w3.org/2000/svg" width="1024" height="1024" viewBox="0 0 1024 1024" role="img" aria-labelledby="title desc">
  <title id="title">ShieldBox icon</title>
  <desc id="desc">Project icon for ShieldBox.</desc>
  <defs>
    <linearGradient id="g-shieldbox" x1="0" y1="0" x2="1" y2="1">
      <stop offset="0" stop-color="#e9ecef"/>
      <stop offset="0.52" stop-color="#6c757d"/>
      <stop offset="1" stop-color="#15191d"/>
    </linearGradient>
    <radialGradient id="r-shieldbox" cx="30%" cy="20%" r="75%">
      <stop offset="0" stop-color="#fffdf6" stop-opacity="0.58"/>
      <stop offset="0.48" stop-color="#fffdf6" stop-opacity="0.08"/>
      <stop offset="1" stop-color="#000000" stop-opacity="0.28"/>
    </radialGradient>
    <filter id="shadow-shieldbox" x="-20%" y="-20%" width="140%" height="140%">
      <feDropShadow dx="0" dy="22" stdDeviation="22" flood-color="#000000" flood-opacity="0.24"/>
    </filter>
  </defs>
  <rect width="1024" height="1024" rx="188" fill="url(#g-shieldbox)"/>
  <rect width="1024" height="1024" rx="188" fill="url(#r-shieldbox)"/>
  <g opacity="0.18" stroke="#fffdf6" stroke-width="2">
    <path d="M128 258h768M128 512h768M128 766h768M258 128v768M512 128v768M766 128v768"/>
  </g>
  <g filter="url(#shadow-shieldbox)"><path stroke="#fffdf6" stroke-width="34" stroke-linecap="round" stroke-linejoin="round" fill="none" d="M512 250l226 84v162c0 142-84 246-226 314-142-68-226-172-226-314V334z"/><path fill="#e9ecef" opacity="0.92" d="M512 330l130 48v114c0 78-42 138-130 184z"/></g>
  <g>
    <rect x="118" y="786" width="308" height="96" rx="32" fill="#fffdf6" opacity="0.92"/>
    <text x="272" y="850" text-anchor="middle" font-family="Arial, Helvetica, sans-serif" font-size="52" font-weight="800" letter-spacing="3" fill="#15191d">SB</text>
  </g>
</svg>
