<svg xmlns="http://www.w3.org/2000/svg" width="1024" height="1024" viewBox="0 0 1024 1024" role="img" aria-labelledby="title desc">
  <title id="title">Utility icon</title>
  <desc id="desc">Project icon for Utility.</desc>
  <defs>
    <linearGradient id="g-utility-candidate" x1="0" y1="0" x2="1" y2="1">
      <stop offset="0" stop-color="#a8dadc"/>
      <stop offset="0.52" stop-color="#457b9d"/>
      <stop offset="1" stop-color="#0c1a24"/>
    </linearGradient>
    <radialGradient id="r-utility-candidate" cx="30%" cy="20%" r="75%">
      <stop offset="0" stop-color="#fffdf6" stop-opacity="0.58"/>
      <stop offset="0.48" stop-color="#fffdf6" stop-opacity="0.08"/>
      <stop offset="1" stop-color="#000000" stop-opacity="0.28"/>
    </radialGradient>
    <filter id="shadow-utility-candidate" x="-20%" y="-20%" width="140%" height="140%">
      <feDropShadow dx="0" dy="22" stdDeviation="22" flood-color="#000000" flood-opacity="0.24"/>
    </filter>
  </defs>
  <rect width="1024" height="1024" rx="188" fill="url(#g-utility-candidate)"/>
  <rect width="1024" height="1024" rx="188" fill="url(#r-utility-candidate)"/>
  <g opacity="0.18" stroke="#fffdf6" stroke-width="2">
    <path d="M128 258h768M128 512h768M128 766h768M258 128v768M512 128v768M766 128v768"/>
  </g>
  <g filter="url(#shadow-utility-candidate)"><path stroke="#fffdf6" stroke-width="34" stroke-linecap="round" stroke-linejoin="round" fill="none" d="M624 292l108 108-122 122 94 94-88 88-94-94-122 122-108-108 122-122-94-94 88-88 94 94z"/><circle cx="512" cy="512" r="54" fill="#a8dadc" opacity="0.92"/></g>
  <g>
    <rect x="118" y="786" width="308" height="96" rx="32" fill="#fffdf6" opacity="0.92"/>
    <text x="272" y="850" text-anchor="middle" font-family="Arial, Helvetica, sans-serif" font-size="52" font-weight="800" letter-spacing="3" fill="#0c1a24">UT</text>
  </g>
</svg>
